# xmcd
#
# Track frame offsets:
#	152
#	9913
#	32440
#	46524
#	66931
#	92790
#	109372
#	129540
#	141640
#	162154
#
# Disc length: 2390 seconds
#
# Revision: 0
# Processed by: cddbd v1.4PL0 Copyright (c) Steve Scherf et al.
# Submitted via: dBpowerAMP V4.0
#
DISCID=8009540a
DTITLE=First baptist church celebration choir - Oh what shouting
DYEAR=1900
DGENRE=
TTITLE0=Someday
TTITLE1=Then I met the master
TTITLE2=Great day medley
TTITLE3=Sweet Jesus
TTITLE4=When we see christ
TTITLE5=Promises one by one
TTITLE6=It`s still the cross
TTITLE7=He shall return for his own
TTITLE8=Where no one stands alone
TTITLE9=Holy is the Lord
EXTD=Oh what shouting
EXTT0=
EXTT1=
EXTT2=
EXTT3=
EXTT4=
EXTT5=
EXTT6=
EXTT7=
EXTT8=
EXTT9=
PLAYORDER=
